<svg width="357" height="94" viewBox="0 0 357 94" fill="none" xmlns="http://www.w3.org/2000/svg">
<path d="M0.0400002 94V29.2H10.03L57.55 85.72V29.2H64.84V94H54.85L7.33 37.48V94H0.0400002ZM85.3628 94C83.3828 94 81.5528 93.52 79.8728 92.56C78.2528 91.54 76.9328 90.22 75.9128 88.6C74.9528 86.92 74.4728 85.09 74.4728 83.11V52.69C74.4728 50.71 74.9528 48.91 75.9128 47.29C76.9328 45.61 78.2528 44.29 79.8728 43.33C81.5528 42.31 83.3828 41.8 85.3628 41.8H116.683C118.723 41.8 120.553 42.31 122.173 43.33C123.853 44.29 125.173 45.61 126.133 47.29C127.153 48.91 127.663 50.71 127.663 52.69V71.59H81.8528V83.11C81.8528 84.07 82.1828 84.91 82.8428 85.63C83.5628 86.29 84.4028 86.62 85.3628 86.62H127.663V94H85.3628ZM81.8528 64.21H120.193V52.69C120.193 51.73 119.833 50.92 119.113 50.26C118.453 49.54 117.643 49.18 116.683 49.18H85.3628C84.4028 49.18 83.5628 49.54 82.8428 50.26C82.1828 50.92 81.8528 51.73 81.8528 52.69V64.21ZM253.355 94C251.375 94 249.545 93.52 247.865 92.56C246.245 91.54 244.925 90.22 243.905 88.6C242.945 86.92 242.465 85.09 242.465 83.11V41.8H249.845V83.11C249.845 84.07 250.175 84.91 250.835 85.63C251.555 86.29 252.395 86.62 253.355 86.62H284.675C285.635 86.62 286.475 86.29 287.195 85.63C287.915 84.91 288.275 84.07 288.275 83.11V41.8H295.655V83.11C295.655 85.09 295.145 86.92 294.125 88.6C293.165 90.22 291.845 91.54 290.165 92.56C288.545 93.52 286.715 94 284.675 94H253.355ZM314.165 94C312.185 94 310.355 93.52 308.675 92.56C307.055 91.54 305.735 90.22 304.715 88.6C303.755 86.92 303.275 85.09 303.275 83.11V82.39H310.655V83.11C310.655 84.07 310.985 84.91 311.645 85.63C312.365 86.29 313.205 86.62 314.165 86.62H345.485C346.445 86.62 347.255 86.29 347.915 85.63C348.635 84.91 348.995 84.07 348.995 83.11V75.1C348.995 74.14 348.635 73.33 347.915 72.67C347.255 71.95 346.445 71.59 345.485 71.59H314.165C312.185 71.59 310.355 71.11 308.675 70.15C307.055 69.13 305.735 67.81 304.715 66.19C303.755 64.51 303.275 62.68 303.275 60.7V52.69C303.275 50.71 303.755 48.91 304.715 47.29C305.735 45.61 307.055 44.29 308.675 43.33C310.355 42.31 312.185 41.8 314.165 41.8H345.485C347.525 41.8 349.355 42.31 350.975 43.33C352.655 44.29 353.975 45.61 354.935 47.29C355.955 48.91 356.465 50.71 356.465 52.69V53.41H348.995V52.69C348.995 51.73 348.635 50.92 347.915 50.26C347.255 49.54 346.445 49.18 345.485 49.18H314.165C313.205 49.18 312.365 49.54 311.645 50.26C310.985 50.92 310.655 51.73 310.655 52.69V60.7C310.655 61.66 310.985 62.5 311.645 63.22C312.365 63.88 313.205 64.21 314.165 64.21H345.485C347.525 64.21 349.355 64.72 350.975 65.74C352.655 66.7 353.975 68.02 354.935 69.7C355.955 71.32 356.465 73.12 356.465 75.1V83.11C356.465 85.09 355.955 86.92 354.935 88.6C353.975 90.22 352.655 91.54 350.975 92.56C349.355 93.52 347.525 94 345.485 94H314.165Z" fill="white"/>
<path d="M138.177 94V93.87L177.437 47.2L138.177 0.529995V0.399996H151.697L184.327 39.01L216.827 0.399996H230.347V0.529995L191.087 47.2L230.477 93.87V94H216.827L184.327 55.39L151.697 94H138.177Z" fill="#9400A1"/>
</svg>
